<svg width="52" height="52" viewBox="0 0 52 52" fill="none" xmlns="http://www.w3.org/2000/svg">
<circle cx="26" cy="26" r="26" fill="url(#paint0_linear_10902_252)"/>
<path d="M34 35V33C34 31.9391 33.5786 30.9217 32.8284 30.1716C32.0783 29.4214 31.0609 29 30 29H22C20.9391 29 19.9217 29.4214 19.1716 30.1716C18.4214 30.9217 18 31.9391 18 33V35" stroke="#FAFAFA" stroke-width="2" stroke-linecap="round" stroke-linejoin="round"/>
<path d="M26 25C28.2091 25 30 23.2091 30 21C30 18.7909 28.2091 17 26 17C23.7909 17 22 18.7909 22 21C22 23.2091 23.7909 25 26 25Z" stroke="#FAFAFA" stroke-width="2" stroke-linecap="round" stroke-linejoin="round"/>
<defs>
<linearGradient id="paint0_linear_10902_252" x1="62.2393" y1="-78.6639" x2="23.2677" y2="57.5831" gradientUnits="userSpaceOnUse">
<stop stop-color="#FF5833"/>
<stop offset="0.515625" stop-color="#FF5833"/>
<stop offset="1" stop-color="#FF5833"/>
</linearGradient>
</defs>
</svg>
